# xmcd
#
# Track frame offsets:
#	150
#	17273
#	20260
#	38397
#	52776
#	76801
#	86596
#	99957
#	125569
#	140202
#	162651
#	175776
#	192349
#	206098
#	220078
#
# Disc length: 3153 seconds
#
# Revision: 1
# Processed by: cddbd v1.5.2PL0 Copyright (c) Steve Scherf et al.
# Submitted via: audiograbber 1.83.01
#
DISCID=ba0c4f0f
DTITLE=Ryan Adams - Heartbreaker
DYEAR=1900
DGENRE=Alternative Country
TTITLE0=(Argument with David Rawlings concerning Morrissey)
TTITLE1=To Be Young (is to be sad, is to be high)
TTITLE2=My Winding Wheel
TTITLE3=AMY
TTITLE4=Oh My Sweet Carolina
TTITLE5=Bartering Lines
TTITLE6=Call Me On Your Way Back Home
TTITLE7=Damn, Sam (I love a woman that rains)
TTITLE8=Come Pick Me Up
TTITLE9=To Be The One
TTITLE10=Why Do They Leave?
TTITLE11=Shakedown on 9th Street
TTITLE12=Don't Ask For The Water
TTITLE13=In My Time Of Need
TTITLE14=Sweet Lil Gal (23rd/1st)
EXTD=
EXTT0=
EXTT1=
EXTT2=
EXTT3=
EXTT4=
EXTT5=
EXTT6=
EXTT7=
EXTT8=
EXTT9=
EXTT10=
EXTT11=
EXTT12=
EXTT13=
EXTT14=
PLAYORDER=
